<svg xmlns="http://www.w3.org/2000/svg" width="24" height="24">
    <path style="stroke:none;fill-rule:nonzero;fill:#000;fill-opacity:1" d="M12.129 3.309a3.006 3.006 0 0 1 4.242 0l5.82 5.82a3.006 3.006 0 0 1 0 4.242l-8.25 8.25a3.005 3.005 0 0 1-2.12.879H7.68a2.998 2.998 0 0 1-2.121-.879l-3.75-3.75a2.999 2.999 0 0 1 0-4.242Zm3.18 1.062a1.495 1.495 0 0 0-2.118 0l-6.953 6.95 7.942 7.94 6.949-6.952a1.495 1.495 0 0 0 0-2.118Zm-2.192 15.95L5.18 12.382 2.87 14.69a1.495 1.495 0 0 0 0 2.118l3.75 3.75c.281.285.664.441 1.059.441h4.14a1.48 1.48 0 0 0 1.059-.441l.242-.239Zm0 0"/>
</svg>
